{"glyphs":{":":{"x_min":0,"x_max":245,"ha":245,"o":"m 122 178 b 69 178 27 135 27 83 b 27 31 69 -12 122 -12 b 175 -12 217 31 217 83 b 217 135 175 178 122 178 z m 122 515 b 69 515 27 472 27 420 b 27 368 69 325 122 325 b 175 325 217 368 217 420 b 217 472 175 515 122 515 z"},"$":{"x_min":0,"x_max":490,"ha":490,"o":"m 209 760 b 93 741 19 668 19 547 b 19 408 128 361 238 311 b 284 289 330 266 330 206 b 330 150 292 108 239 108 b 176 108 134 146 91 187 l 21 76 b 72 23 137 -2 209 -12 l 209 -98 l 282 -98 l 282 -12 b 399 10 472 109 472 226 b 472 376 358 425 240 473 b 198 490 161 510 161 561 b 161 614 195 640 246 640 b 294 640 330 617 361 582 l 443 672 b 402 725 347 750 282 760 l 282 831 l 209 831 z"},"?":{"x_min":0,"x_max":454,"ha":454,"o":"m 166 564 b 166 595 178 636 215 636 b 261 636 268 570 268 538 b 268 484 249 419 181 419 b 173 419 165 420 156 422 l 156 236 l 305 236 l 305 334 b 393 357 427 459 427 541 b 427 669 350 766 217 766 b 83 766 20 673 25 546 l 166 546 z m 137 83 b 137 31 180 -12 231 -12 b 284 -12 327 31 327 83 b 327 135 284 178 231 178 b 180 178 137 135 137 83 z"},"<":{"x_min":0,"x_max":490,"ha":490,"o":"m 140 256 l 470 423 l 470 534 l 20 307 l 20 208 l 470 -17 l 470 94 z"},"'":{"x_min":0,"x_max":250,"ha":250,"o":"m 180 463 l 195 754 l 56 754 l 71 463 z"},"=":{"x_min":0,"x_max":490,"ha":490,"o":"m 470 408 l 21 408 l 21 298 l 470 298 z m 470 213 l 21 213 l 21 103 l 470 103 z"},"a":{"x_min":0,"x_max":433,"ha":433,"o":"m 219 119 b 169 119 167 223 167 255 b 167 284 170 390 217 390 b 265 390 268 283 268 255 b 268 228 264 119 219 119 z m 258 0 l 399 0 l 399 505 l 258 505 l 258 443 l 256 443 b 240 484 208 515 161 515 b 43 515 26 340 26 253 b 26 172 49 -10 163 -10 b 208 -10 237 19 256 57 l 258 57 z"},"L":{"x_min":0,"x_max":373,"ha":373,"o":"m 53 754 l 53 0 l 358 0 l 358 140 l 202 140 l 202 754 z"},"3":{"x_min":0,"x_max":490,"ha":490,"o":"m 174 198 l 34 198 b 28 72 105 -12 232 -12 b 370 -12 455 72 455 210 b 455 291 423 368 339 389 l 339 391 b 412 420 432 497 432 569 b 432 688 363 766 241 766 b 102 766 59 664 65 543 l 194 543 l 194 558 b 194 591 201 636 244 636 b 288 636 295 593 295 559 b 295 476 262 460 181 460 l 181 330 b 265 333 294 309 294 225 b 294 180 290 118 229 118 b 189 118 173 152 173 177 z"},";":{"x_min":0,"x_max":245,"ha":245,"o":"m 67 162 l -33 -144 l 67 -144 l 217 162 z m 123 515 b 70 515 28 472 28 420 b 28 368 70 325 123 325 b 176 325 218 368 218 420 b 218 472 176 515 123 515 z"},"J":{"x_min":0,"x_max":352,"ha":352,"o":"m 304 754 l 155 754 l 155 244 b 155 194 160 118 90 118 b 59 118 30 136 12 160 l 12 11 b 44 -6 87 -12 124 -12 b 311 -12 304 182 304 244 z"},"V":{"x_min":0,"x_max":565,"ha":565,"o":"m 8 754 l 226 0 l 348 0 l 557 754 l 401 754 l 310 394 b 298 350 295 307 287 263 l 285 263 b 276 306 271 349 258 392 l 168 754 z"},"\"":{"x_min":0,"x_max":360,"ha":360,"o":"m 326 463 l 341 754 l 202 754 l 217 463 z m 143 463 l 158 754 l 19 754 l 34 463 z"},"7":{"x_min":0,"x_max":490,"ha":490,"o":"m 73 754 l 73 624 l 276 624 l 41 0 l 196 0 l 480 754 z"},"S":{"x_min":0,"x_max":440,"ha":440,"o":"m 363 729 b 322 753 279 766 231 766 b 103 766 34 663 34 544 b 34 434 87 378 173 320 b 215 290 261 268 261 210 b 261 160 223 128 175 128 b 131 128 97 144 62 168 l 62 26 b 96 1 148 -12 190 -12 b 330 -12 407 89 407 223 b 407 427 180 434 180 558 b 180 604 209 632 255 632 b 296 632 333 610 363 584 z"},"}":{"x_min":0,"x_max":300,"ha":300,"o":"m 62 -124 b 182 -124 207 -73 207 31 l 207 169 b 207 230 224 275 282 275 l 282 351 b 224 351 207 404 207 457 l 207 619 b 207 710 175 754 84 754 l -3 754 l -3 678 b 64 678 77 636 77 578 l 77 446 b 77 373 91 331 159 315 l 159 313 b 88 301 77 237 77 171 l 77 52 b 77 -1 64 -48 -3 -48 l -3 -124 z"},"Z":{"x_min":0,"x_max":508,"ha":508,"o":"m 50 754 l 50 614 l 269 614 l 18 0 l 472 0 l 472 140 l 235 140 l 493 754 z"},"x":{"x_min":0,"x_max":489,"ha":489,"o":"m 42 505 l 168 272 l 23 0 l 168 0 l 243 139 l 317 0 l 466 0 l 317 272 l 446 505 l 300 505 l 243 397 l 228 428 l 188 505 z"},")":{"x_min":0,"x_max":300,"ha":300,"o":"m 147 -136 b 221 1 258 167 258 319 b 258 475 220 625 147 766 l 18 737 b 81 605 118 466 118 322 b 118 174 83 27 18 -108 z"},"&":{"x_min":0,"x_max":590,"ha":590,"o":"m 243 497 b 229 521 211 544 211 573 b 211 600 231 618 257 618 b 281 618 295 599 295 577 b 295 542 273 513 243 497 z m 306 146 b 289 131 276 125 254 125 b 206 125 171 169 171 223 b 171 249 186 281 207 297 z m 402 0 l 560 0 l 481 120 l 487 125 b 515 147 541 171 564 199 l 485 306 b 463 276 435 251 410 224 l 310 379 b 371 431 431 497 431 583 b 431 680 347 733 258 733 b 160 733 82 669 82 568 b 82 513 108 459 135 412 b 68 361 26 300 26 213 b 26 95 112 -10 235 -10 b 284 -10 336 12 373 44 z"},"_":{"x_min":0,"x_max":500,"ha":500,"o":"m 500 -187 l 500 -112 l 0 -112 l 0 -187 z"},"v":{"x_min":0,"x_max":452,"ha":452,"o":"m 15 505 l 160 0 l 291 0 l 437 505 l 291 505 l 241 293 l 236 272 l 225 220 l 223 220 l 222 228 l 155 505 z"},"O":{"x_min":0,"x_max":582,"ha":582,"o":"m 291 766 b 158 766 26 660 26 377 b 26 94 158 -12 291 -12 b 424 -12 556 94 556 377 b 556 660 424 766 291 766 z m 185 377 b 185 444 192 628 291 628 b 390 628 397 444 397 377 b 397 317 390 126 291 126 b 192 126 185 317 185 377 z"},"(":{"x_min":0,"x_max":300,"ha":300,"o":"m 153 766 b 79 629 42 463 42 311 b 42 155 80 5 153 -136 l 282 -107 b 219 25 182 164 182 308 b 182 456 217 603 282 738 z"},"C":{"x_min":0,"x_max":452,"ha":452,"o":"m 429 749 b 404 758 379 763 353 763 b 150 763 26 571 26 384 b 26 186 145 -8 360 -8 b 384 -8 407 -4 429 5 l 429 146 b 410 140 391 135 372 135 b 242 135 185 273 185 385 b 185 501 242 620 373 620 b 392 620 410 617 429 612 z"},"W":{"x_min":0,"x_max":793,"ha":793,"o":"m 8 754 l 160 0 l 290 0 l 376 398 b 387 444 392 490 400 536 l 402 536 b 409 490 418 444 423 398 l 500 0 l 629 0 l 785 754 l 629 754 l 570 392 b 561 339 560 287 555 234 l 553 234 l 457 754 l 339 754 l 264 394 b 253 341 249 287 242 234 l 240 234 b 235 287 233 341 224 394 l 160 754 z"},"A":{"x_min":0,"x_max":528,"ha":528,"o":"m 183 754 l 8 0 l 156 0 l 183 127 l 334 127 l 362 0 l 521 0 l 340 754 z m 312 245 l 207 245 l 239 446 l 255 560 l 257 560 l 274 446 z"},"f":{"x_min":0,"x_max":299,"ha":299,"o":"m 19 505 l 19 389 l 71 389 l 71 0 l 212 0 l 212 389 l 277 389 l 277 505 l 212 505 l 212 595 b 212 626 207 677 252 677 b 262 677 268 674 277 669 l 277 805 b 257 812 237 817 216 817 b 90 817 71 742 71 647 l 71 505 z"},"Q":{"x_min":0,"x_max":582,"ha":582,"o":"m 315 307 l 238 232 l 327 139 b 315 130 305 126 291 126 b 192 126 185 317 185 377 b 185 444 192 628 291 628 b 390 628 397 444 397 377 b 397 320 395 275 383 232 z m 500 111 b 545 186 556 288 556 377 b 556 660 424 766 291 766 b 158 766 26 660 26 377 b 26 94 158 -12 291 -12 b 344 -12 389 3 429 34 l 487 -29 l 565 45 z"},"w":{"x_min":0,"x_max":694,"ha":694,"o":"m 15 505 l 158 0 l 276 0 l 316 156 l 345 317 l 347 317 l 377 171 l 423 0 l 539 0 l 679 505 l 545 505 l 485 263 l 475 209 l 473 209 l 409 505 l 288 505 l 222 209 l 220 209 l 152 505 z"},"-":{"x_min":0,"x_max":318,"ha":318,"o":"m 34 397 l 34 264 l 284 264 l 284 397 z"},"E":{"x_min":0,"x_max":392,"ha":392,"o":"m 53 754 l 53 0 l 355 0 l 355 140 l 202 140 l 202 310 l 335 310 l 335 450 l 202 450 l 202 614 l 353 614 l 353 754 z"},"s":{"x_min":0,"x_max":376,"ha":376,"o":"m 346 472 b 305 502 262 515 211 515 b 122 515 42 463 42 367 b 42 207 205 224 203 157 b 203 131 184 115 162 115 b 134 115 113 130 92 148 l 30 48 b 72 13 128 -10 182 -10 b 286 -10 344 67 344 167 b 344 318 185 306 183 365 b 183 387 196 402 221 402 b 250 402 269 387 289 369 z"},">":{"x_min":0,"x_max":490,"ha":490,"o":"m 21 94 l 21 -17 l 470 208 l 470 307 l 21 534 l 21 423 l 350 256 z"},"l":{"x_min":0,"x_max":210,"ha":210,"o":"m 35 807 l 35 0 l 176 0 l 176 807 z"},"8":{"x_min":0,"x_max":490,"ha":490,"o":"m 243 484 b 206 484 202 541 202 570 b 202 597 207 649 243 649 b 284 649 289 596 289 569 b 289 541 289 484 243 484 z m 244 334 b 293 334 309 262 309 225 b 309 188 296 118 245 118 b 193 118 182 186 182 225 b 182 264 193 334 244 334 z m 331 407 b 400 432 434 496 434 567 b 434 678 360 766 246 766 b 131 766 57 678 57 567 b 57 496 92 431 160 408 l 160 406 b 66 375 29 303 29 206 b 29 82 120 -12 246 -12 b 372 -12 462 82 462 206 b 462 301 425 376 331 406 l 331 408 z"},"\\":{"x_min":0,"x_max":250,"ha":250,"o":"m -106 807 l 242 0 l 356 0 l 8 807 z"},"e":{"x_min":0,"x_max":414,"ha":414,"o":"m 266 302 l 163 302 l 163 317 b 163 349 172 407 215 407 b 259 407 266 347 266 314 z m 388 273 b 396 432 310 515 217 515 b 70 515 26 363 26 242 b 26 117 77 -10 220 -10 b 323 -10 368 63 380 156 l 260 156 b 260 126 251 98 215 98 b 161 98 163 178 162 215 l 385 215 z"},"b":{"x_min":0,"x_max":433,"ha":433,"o":"m 35 0 l 176 0 l 176 57 l 178 57 b 196 19 225 -10 271 -10 b 386 -10 407 172 407 253 b 407 340 391 515 272 515 b 226 515 194 484 178 443 l 176 443 l 176 807 l 35 807 z m 215 119 b 169 119 166 228 166 255 b 166 283 168 390 216 390 b 262 390 266 284 266 255 b 266 223 263 119 215 119 z"},"%":{"x_min":0,"x_max":858,"ha":858,"o":"m 554 754 l 197 0 l 304 0 l 661 754 z m 195 761 b 70 761 38 648 38 544 b 38 440 70 327 195 327 b 320 327 352 440 352 544 b 352 648 320 761 195 761 z m 195 647 b 230 647 232 566 232 544 b 232 522 230 441 195 441 b 160 441 158 523 158 544 b 158 567 159 647 195 647 z m 662 427 b 537 427 505 314 505 210 b 505 106 537 -7 662 -7 b 787 -7 819 106 819 210 b 819 314 787 427 662 427 z m 662 313 b 697 313 699 232 699 210 b 699 188 697 107 662 107 b 627 107 625 189 625 210 b 625 233 626 313 662 313 z"},"m":{"x_min":0,"x_max":639,"ha":639,"o":"m 176 505 l 35 505 l 35 0 l 176 0 l 176 283 l 176 314 b 176 340 181 372 216 372 b 256 372 249 308 249 283 l 249 0 l 390 0 l 390 317 b 390 340 395 374 428 374 b 470 374 463 300 463 274 l 463 0 l 604 0 l 604 349 b 604 414 604 515 513 515 b 459 515 415 474 392 429 l 390 429 b 383 475 355 515 303 515 b 243 515 203 473 179 424 l 177 424 z"},"#":{"x_min":0,"x_max":490,"ha":490,"o":"m 440 338 l 365 338 l 376 432 l 464 432 l 464 532 l 388 532 l 415 754 l 331 754 l 305 532 l 230 532 l 256 754 l 173 754 l 146 532 l 51 532 l 51 432 l 135 432 l 124 338 l 26 338 l 26 238 l 111 238 l 83 0 l 167 0 l 196 238 l 270 238 l 242 0 l 325 0 l 354 238 l 440 238 z m 293 432 l 281 338 l 208 338 l 219 432 z"},",":{"x_min":0,"x_max":245,"ha":245,"o":"m 67 162 l -33 -144 l 67 -144 l 218 162 z"},"n":{"x_min":0,"x_max":424,"ha":424,"o":"m 176 505 l 35 505 l 35 0 l 176 0 l 176 315 b 176 340 182 373 214 373 b 259 373 249 303 249 277 l 249 0 l 390 0 l 390 326 b 390 399 399 515 295 515 b 240 515 197 475 178 427 l 176 427 z"},"h":{"x_min":0,"x_max":424,"ha":424,"o":"m 35 807 l 35 0 l 176 0 l 176 315 b 176 340 182 373 214 373 b 259 373 249 303 249 277 l 249 0 l 390 0 l 390 326 b 390 399 399 515 295 515 b 240 515 197 475 178 427 l 176 427 l 176 807 z"},"z":{"x_min":0,"x_max":401,"ha":401,"o":"m 39 505 l 39 388 l 183 388 l 23 0 l 361 0 l 361 117 l 222 117 l 378 505 z"},"B":{"x_min":0,"x_max":479,"ha":479,"o":"m 297 229 b 297 166 262 122 202 125 l 202 329 b 261 331 297 288 297 229 z m 198 0 b 334 0 444 63 444 212 b 444 277 413 357 351 387 b 407 425 432 476 432 543 b 432 606 405 673 355 713 b 307 752 257 754 199 754 l 53 754 l 53 0 z m 291 540 b 291 483 258 445 202 445 l 202 629 b 259 632 291 595 291 540 z"},"K":{"x_min":0,"x_max":513,"ha":513,"o":"m 53 754 l 53 0 l 202 0 l 202 384 l 204 384 l 341 0 l 498 0 l 341 406 l 480 754 l 328 754 l 204 417 l 202 417 l 202 754 z"},"R":{"x_min":0,"x_max":530,"ha":530,"o":"m 202 0 l 202 348 l 204 348 l 335 0 l 492 0 l 361 343 b 435 384 468 455 468 538 b 468 744 298 754 203 754 l 53 754 l 53 0 z m 202 631 l 222 631 b 297 635 323 591 323 537 b 323 475 296 429 228 429 l 202 430 z"},"T":{"x_min":0,"x_max":414,"ha":414,"o":"m 15 754 l 15 614 l 132 614 l 132 0 l 281 0 l 281 614 l 399 614 l 399 754 z"},"P":{"x_min":0,"x_max":487,"ha":487,"o":"m 202 0 l 202 311 l 235 309 b 373 309 464 390 464 531 b 464 774 240 754 208 754 l 53 754 l 53 0 z m 202 631 l 230 631 b 294 631 315 587 315 533 b 315 456 274 429 202 432 z"},"|":{"x_min":0,"x_max":250,"ha":250,"o":"m 70 0 l 180 0 l 180 807 l 70 807 z"},"t":{"x_min":0,"x_max":308,"ha":308,"o":"m 79 645 l 79 505 l 30 505 l 30 389 l 79 389 l 79 0 l 220 0 l 220 389 l 278 389 l 278 505 l 220 505 l 220 645 z"},"M":{"x_min":0,"x_max":722,"ha":722,"o":"m 89 754 l 23 0 l 183 0 l 205 543 l 207 543 l 207 529 l 232 361 l 305 0 l 420 0 l 484 357 l 508 543 l 510 543 l 546 0 l 699 0 l 620 754 l 420 754 l 360 309 l 358 309 l 285 754 z"},"g":{"x_min":0,"x_max":437,"ha":437,"o":"m 220 119 b 169 119 167 223 167 255 b 167 284 170 390 218 390 b 266 390 268 283 268 255 b 268 228 265 119 220 119 z m 31 -67 b 38 -182 93 -251 213 -251 b 336 -251 402 -192 402 -44 l 402 505 l 261 505 l 261 444 l 259 444 b 243 484 209 515 162 515 b 42 515 26 333 26 245 b 26 189 34 124 59 74 b 81 31 116 -10 168 -10 b 217 -10 240 26 259 63 l 261 63 l 261 -1 b 261 -44 270 -139 207 -139 b 167 -139 158 -99 156 -67 z"},"j":{"x_min":0,"x_max":209,"ha":209,"o":"m 34 505 l 34 -249 l 175 -249 l 175 505 z m 104 565 b 153 565 194 606 194 654 b 194 702 156 745 107 745 b 56 745 15 707 15 656 b 15 606 55 565 104 565 z"},"i":{"x_min":0,"x_max":209,"ha":209,"o":"m 34 505 l 34 0 l 175 0 l 175 505 z m 104 565 b 153 565 194 606 194 654 b 194 702 156 745 107 745 b 56 745 15 707 15 656 b 15 606 55 565 104 565 z"},"y":{"x_min":0,"x_max":452,"ha":452,"o":"m 15 505 l 162 10 l 81 -249 l 220 -249 l 437 505 l 295 505 l 229 217 l 227 217 l 210 301 l 157 505 z"},"@":{"x_min":0,"x_max":833,"ha":833,"o":"m 504 373 b 499 317 455 241 380 252 b 338 258 305 295 309 360 b 313 424 360 481 422 486 b 485 491 509 433 504 373 z m 538 518 b 508 561 464 578 411 578 b 282 578 199 463 199 342 b 199 241 262 160 368 160 b 409 160 448 180 491 220 l 493 218 b 485 180 510 156 535 156 b 586 156 795 216 795 454 b 795 638 640 766 435 766 b 132 766 38 526 38 381 b 38 148 194 -12 441 -12 b 569 -12 676 51 750 153 l 654 153 b 597 101 528 61 449 61 b 252 61 116 180 116 381 b 116 561 247 693 432 693 b 601 693 722 591 717 426 b 714 285 580 201 594 265 l 647 571 l 549 571 z"},".":{"x_min":0,"x_max":245,"ha":245,"o":"m 122 178 b 69 178 27 135 27 83 b 27 31 69 -12 122 -12 b 175 -12 217 31 217 83 b 217 135 175 178 122 178 z"},"p":{"x_min":0,"x_max":433,"ha":433,"o":"m 215 119 b 169 119 166 228 166 255 b 166 283 168 390 216 390 b 262 390 266 284 266 255 b 266 223 265 119 215 119 z m 176 505 l 35 505 l 35 -249 l 176 -249 l 176 57 l 178 57 b 196 19 225 -10 271 -10 b 386 -10 407 172 407 253 b 407 340 391 515 272 515 b 226 515 194 484 178 443 l 176 443 z"},"X":{"x_min":0,"x_max":545,"ha":545,"o":"m 22 754 l 182 389 l 22 0 l 190 0 l 234 120 b 247 158 256 195 267 233 l 269 233 b 279 195 288 158 302 120 l 350 0 l 523 0 l 350 389 l 511 754 l 350 754 l 305 649 b 291 611 279 573 271 534 l 269 534 b 261 573 246 612 233 649 l 190 754 z"},"*":{"x_min":0,"x_max":376,"ha":376,"o":"m 158 754 l 158 635 l 55 698 l 23 642 l 127 584 l 23 525 l 55 468 l 158 533 l 158 410 l 222 410 l 222 533 l 321 468 l 353 525 l 248 584 l 353 642 l 321 698 l 222 635 l 222 754 z"},"Y":{"x_min":0,"x_max":514,"ha":514,"o":"m 4 754 l 185 361 l 185 0 l 334 0 l 334 361 l 510 754 l 343 754 l 276 568 l 259 512 l 257 512 l 246 549 l 168 754 z"},"c":{"x_min":0,"x_max":315,"ha":315,"o":"m 292 137 b 279 128 265 122 249 122 b 178 122 167 203 167 257 b 167 309 182 392 251 392 b 268 392 279 388 292 376 l 292 500 b 269 510 247 515 222 515 b 76 515 26 376 26 249 b 26 134 74 -10 211 -10 b 240 -10 266 -4 292 8 z"},"!":{"x_min":0,"x_max":246,"ha":246,"o":"m 197 754 l 50 754 l 50 226 l 197 226 z m 123 178 b 71 178 28 135 28 83 b 28 31 71 -12 123 -12 b 175 -12 218 31 218 83 b 218 135 175 178 123 178 z"},"/":{"x_min":0,"x_max":547,"ha":547,"o":"m 424 807 l 31 -166 l 145 -166 l 538 807 z"},"[":{"x_min":0,"x_max":320,"ha":320,"o":"m 53 754 l 53 -124 l 306 -124 l 306 -26 l 183 -26 l 183 656 l 304 656 l 304 754 z"},"6":{"x_min":0,"x_max":490,"ha":490,"o":"m 206 754 l 144 626 b 87 505 37 390 37 253 b 37 121 93 -12 243 -12 b 401 -12 454 130 454 265 b 454 356 416 499 302 499 b 262 499 236 483 208 458 l 206 460 l 350 754 z m 249 367 b 300 367 309 286 309 249 b 309 211 302 115 245 115 b 195 115 182 201 182 237 b 182 275 193 367 249 367 z"},"r":{"x_min":0,"x_max":315,"ha":315,"o":"m 35 505 l 35 0 l 176 0 l 176 252 b 176 327 177 389 271 389 b 279 389 286 388 293 387 l 293 524 b 238 519 204 488 178 444 l 176 444 l 176 505 z"},"2":{"x_min":0,"x_max":490,"ha":490,"o":"m 190 492 l 188 540 b 188 581 191 662 248 662 b 296 662 308 608 308 569 b 308 486 250 384 211 312 l 41 0 l 437 0 l 437 130 l 262 130 l 388 369 b 423 436 450 497 450 574 b 450 704 372 767 247 767 b 90 767 50 673 50 533 l 52 492 z"},"{":{"x_min":0,"x_max":300,"ha":300,"o":"m 303 -124 l 303 -48 b 236 -48 223 -1 223 52 l 223 171 b 223 237 212 301 141 313 l 141 315 b 209 331 223 373 223 446 l 223 578 b 223 636 236 678 303 678 l 303 754 l 216 754 b 125 754 93 710 93 619 l 93 457 b 93 404 76 351 18 351 l 18 275 b 76 275 93 230 93 169 l 93 31 b 93 -73 118 -124 238 -124 z"},"9":{"x_min":0,"x_max":490,"ha":490,"o":"m 285 0 l 347 129 b 404 249 454 365 454 501 b 454 634 399 766 248 766 b 90 766 37 625 37 490 b 37 400 75 255 189 255 b 229 255 255 272 283 297 l 285 295 l 141 0 z m 246 637 b 297 638 309 554 309 518 b 309 480 299 387 242 387 b 191 387 182 469 182 505 b 182 543 189 637 246 637 z"}," ":{"x_min":0,"x_max":245,"ha":245,"o":""},"I":{"x_min":0,"x_max":255,"ha":255,"o":"m 53 754 l 53 0 l 202 0 l 202 754 z"},"H":{"x_min":0,"x_max":555,"ha":555,"o":"m 53 754 l 53 0 l 202 0 l 202 319 l 353 319 l 353 0 l 502 0 l 502 754 l 353 754 l 353 459 l 202 459 l 202 754 z"},"4":{"x_min":0,"x_max":490,"ha":490,"o":"m 228 754 l 28 294 l 28 182 l 247 182 l 247 0 l 392 0 l 392 182 l 453 182 l 453 296 l 392 296 l 392 754 z m 247 296 l 133 296 l 245 582 l 247 582 z"},"~":{"x_min":0,"x_max":490,"ha":490,"o":"m 414 359 b 395 329 378 285 341 285 b 299 285 219 351 154 351 b 89 351 49 284 21 227 l 78 153 b 96 187 114 235 155 235 b 187 235 281 169 341 169 b 407 169 439 232 470 286 z"},"D":{"x_min":0,"x_max":530,"ha":530,"o":"m 186 0 b 421 0 504 156 504 371 b 504 792 192 754 166 754 l 53 754 l 53 0 z m 202 134 l 202 620 b 325 620 355 468 355 372 b 355 278 322 128 202 134 z"},"^":{"x_min":0,"x_max":490,"ha":490,"o":"m 121 330 l 245 621 l 370 330 l 470 377 l 305 754 l 185 754 l 21 377 z"},"0":{"x_min":0,"x_max":490,"ha":490,"o":"m 245 766 b 64 766 33 510 33 377 b 33 244 64 -12 245 -12 b 426 -12 457 244 457 377 b 457 510 426 766 245 766 z m 245 630 b 319 630 312 426 312 377 b 312 328 319 124 245 124 b 171 124 178 328 178 377 b 178 426 171 630 245 630 z"},"F":{"x_min":0,"x_max":394,"ha":394,"o":"m 53 754 l 53 0 l 202 0 l 202 313 l 339 313 l 339 453 l 202 453 l 202 614 l 354 614 l 354 754 z"},"`":{"x_min":0,"x_max":300,"ha":300,"o":"m 153 754 l 51 708 l 180 570 l 249 610 z"},"k":{"x_min":0,"x_max":440,"ha":440,"o":"m 35 807 l 35 0 l 176 0 l 176 234 l 178 234 l 278 0 l 433 0 l 294 299 l 408 505 l 255 505 l 178 328 l 176 328 l 176 807 z"},"u":{"x_min":0,"x_max":423,"ha":423,"o":"m 35 505 l 35 202 b 35 110 48 -10 208 -10 b 333 -10 388 66 388 183 l 388 505 l 248 505 l 247 197 b 247 172 250 122 212 122 b 165 122 176 200 176 228 l 176 505 z"},"]":{"x_min":0,"x_max":320,"ha":320,"o":"m 16 754 l 16 656 l 137 656 l 137 -26 l 14 -26 l 14 -124 l 267 -124 l 267 754 z"},"U":{"x_min":0,"x_max":544,"ha":544,"o":"m 49 754 l 49 194 b 49 53 132 -12 271 -12 b 486 -12 495 124 495 204 l 495 754 l 346 754 l 346 234 b 345 178 345 123 272 123 b 191 123 198 209 198 266 l 198 754 z"},"o":{"x_min":0,"x_max":436,"ha":436,"o":"m 218 515 b 67 515 26 381 26 252 b 26 123 67 -10 218 -10 b 369 -10 410 123 410 252 b 410 381 369 515 218 515 z m 218 388 b 267 388 269 281 269 252 b 269 223 267 116 218 116 b 169 116 167 223 167 252 b 167 281 169 388 218 388 z"},"N":{"x_min":0,"x_max":573,"ha":573,"o":"m 53 754 l 53 0 l 202 0 l 202 346 l 201 377 l 194 453 l 196 455 l 380 0 l 521 0 l 521 754 l 372 754 l 372 415 b 372 376 375 337 384 301 l 382 299 l 196 754 z"},"+":{"x_min":0,"x_max":490,"ha":490,"o":"m 190 311 l 21 311 l 21 201 l 190 201 l 190 7 l 300 7 l 300 201 l 470 201 l 470 311 l 300 311 l 300 499 l 190 499 z"},"G":{"x_min":0,"x_max":563,"ha":563,"o":"m 293 420 l 293 280 l 388 280 b 388 228 376 126 300 126 b 190 126 185 299 185 377 b 185 448 195 634 296 628 b 353 628 365 569 372 531 l 517 587 b 485 694 410 766 295 766 b 82 766 26 547 26 373 b 26 206 92 -12 295 -12 b 498 -12 537 201 537 361 l 537 420 z"},"q":{"x_min":0,"x_max":433,"ha":433,"o":"m 399 505 l 258 505 l 258 443 l 256 443 b 240 484 208 515 161 515 b 43 515 26 340 26 253 b 26 172 49 -10 163 -10 b 208 -10 237 19 256 57 l 258 57 l 258 -249 l 399 -249 z m 219 119 b 169 119 167 223 167 255 b 167 284 170 390 217 390 b 265 390 268 283 268 255 b 268 228 264 119 219 119 z"},"d":{"x_min":0,"x_max":433,"ha":433,"o":"m 258 0 l 399 0 l 399 807 l 258 807 l 258 443 l 256 443 b 240 484 208 515 161 515 b 43 515 26 340 26 253 b 26 172 49 -10 163 -10 b 208 -10 237 19 256 57 l 258 57 z m 219 119 b 169 119 167 223 167 255 b 167 284 170 390 217 390 b 265 390 268 283 268 255 b 268 228 264 119 219 119 z"},"1":{"x_min":0,"x_max":490,"ha":490,"o":"m 110 754 l 110 624 l 182 624 l 182 0 l 327 0 l 327 754 z"},"5":{"x_min":0,"x_max":490,"ha":490,"o":"m 74 383 b 92 386 112 389 131 389 b 219 389 283 349 283 255 b 283 184 245 118 166 118 b 132 118 100 132 74 153 l 49 22 b 96 -1 141 -12 194 -12 b 361 -12 442 92 442 253 b 442 401 370 494 217 502 l 237 624 l 421 624 l 421 754 l 133 754 z"}}}
